<?xml version="1.0" standalone="no"?>
<!DOCTYPE svg PUBLIC "-//W3C//DTD SVG 1.0//EN" "http://www.w3.org/TR/2001/REC-SVG-20010904/DTD/svg10.dtd">
<svg xmlns="http://www.w3.org/2000/svg" xmlns:xlink="http://www.w3.org/1999/xlink" id="body_1" width="26" height="26">

<g transform="matrix(0.067183465 0 0 0.048780486 0 0)">
	<g transform="matrix(0.13344826 0 -0 -0.13325 0 532.99994)">
	</g>
    <path transform="matrix(0.13344826 0 -0 -0.13325 0 532.99994)"  d="M2 3423C 3 3105 5 2863 7 2885C 42 3271 288 3645 634 3837C 776 3916 946 3972 1099 3990C 1137 3994 916 3998 583 3999L583 3999L0 4000L2 3423z" stroke="none" fill="#000000" fill-rule="nonzero" />
	<g transform="matrix(0.13344826 0 -0 -0.13325 0 532.99994)">
	</g>
    <path transform="matrix(0.13344826 0 -0 -0.13325 0 532.99994)"  d="M1401 3990C 1868 3935 2271 3613 2428 3170C 2479 3025 2494 2932 2493 2765C 2493 2636 2489 2601 2467 2517C 2412 2312 2282 2088 2072 1841L2072 1841L2009 1767L2054 1742C 2087 1724 2106 1704 2121 1674C 2147 1620 2141 1591 2091 1513C 2051 1451 1955 1372 1748 1231L1748 1231L1642 1158L1605 1072C 1494 815 1356 368 1300 85C 1293 52 1283 19 1278 12C 1270 3 1432 0 2084 0L2084 0L2900 0L2900 2000L2900 4000L2118 3999C 1687 3998 1365 3994 1401 3990z" stroke="none" fill="#000000" fill-rule="nonzero" />
	<g transform="matrix(0.13344826 0 -0 -0.13325 0 532.99994)">
	</g>
    <path transform="matrix(0.13344826 0 -0 -0.13325 0 532.99994)"  d="M1 1343L0 0L621 0C 1185 0 1240 1 1226 16C 1217 24 1210 40 1210 50C 1210 60 1183 173 1151 301C 1056 676 953 971 815 1257C 688 1520 605 1648 429 1850C 343 1949 237 2089 183 2175C 100 2306 31 2487 11 2626C 6 2661 2 2139 1 1343z" stroke="none" fill="#000000" fill-rule="nonzero" />
</g>
</svg>