<svg xmlns="http://www.w3.org/2000/svg" width="386.667" height="533.333" preserveAspectRatio="xMidYMid meet" version="1.0" viewBox="0 0 290 400"><g fill="#000" stroke="none"><path d="M2 3423 c1 -318 3 -560 5 -538 35 386 281 760 627 952 142 79 312 135 465 153 38 4 -183 8 -516 9 l-583 1 2 -577z" transform="translate(0.000000,400.000000) scale(0.100000,-0.100000)"/><path d="M1401 3990 c467 -55 870 -377 1027 -820 51 -145 66 -238 65 -405 0 -129 -4 -164 -26 -248 -55 -205 -185 -429 -395 -676 l-63 -74 45 -25 c33 -18 52 -38 67 -68 26 -54 20 -83 -30 -161 -40 -62 -136 -141 -343 -282 l-106 -73 -37 -86 c-111 -257 -249 -704 -305 -987 -7 -33 -17 -66 -22 -73 -8 -9 154 -12 806 -12 l816 0 0 2000 0 2000 -782 -1 c-431 -1 -753 -5 -717 -9z" transform="translate(0.000000,400.000000) scale(0.100000,-0.100000)"/><path d="M1 1343 l-1 -1343 621 0 c564 0 619 1 605 16 -9 8 -16 24 -16 34 0 10 -27 123 -59 251 -95 375 -198 670 -336 956 -127 263 -210 391 -386 593 -86 99 -192 239 -246 325 -83 131 -152 312 -172 451 -5 35 -9 -487 -10 -1283z" transform="translate(0.000000,400.000000) scale(0.100000,-0.100000)"/></g></svg>